<?xml version='1.0' encoding='utf-8'?>
<svg xmlns="http://www.w3.org/2000/svg" enable-background="new 0 0 4000 3145.558" version="1.1" viewBox="0 0 4e3 3145.6"> <path d="m3997.8 1795.2c-5.904-15.525-17.667-24.443-28.274-12.814-46.155 57.558-416.84 188.44-464.93 190.74-11.328 2.177-23.077 2.692-33.961 6.811-2.586-3.979-6.003-7.279-9.877-9.971-4.4-2.867-7.677-7.057-11.89-10.158 0.281-0.316-3.616-0.07-1.908-0.702 28.573-5.091 49.238-17.498 64.611-26.788 58.581-34.085 37.737-77.511 16.443-75.401-10.279-0.279-28.141 16.086-38.409 22.551-48.147 32.098-53.758-5.352-85.688-3.955-12.885-0.457-26.296 1.872-38.678-2.844-27.067-10.879-60.689-3.554-67.619 2.021-0.845 0.065-1.69 0.129-2.535 0.194 14.902-27.387 19.074-69.417-16.446-83.245-29.484-12.609-40.823-0.497-124.08-42.399-10.651-5.578-100.92-55.294-112.38-61.241-70.758-37.923-90.857-45.331-133.69-79.871-10.503-8.937-32.291-25.008-45.313-25.348-1.229-0.433-3.534 0.012-3.604-1.826 0.749-6.296 1.627-13.189-1.884-18.853-3.862-4.763-4.751-11.27-8.976-15.81-7.797-7.91-40.336-21.286-50.93-20.878-5.734-0.194-26.491 5.194-32.499-2.352-14.002-15.812-33.334-45.648-53.06-56.934-4.986-3.09-10.685-5.383-14.582-9.936-3.522-3.921-6.366-8.567-11.012-11.293-70.759-76.237-95.401-142.82-126.23-151.5-0.656-2.481 2.095-3.546 3.335-5.149 28.452-31.338 7.791-65.513-15.342-73.458-8.929-2.411-18.256-1.451-27.396-1.217-0.503-3.043-1.264-6.238-0.328-9.233 4.541-5.29 10.907-8.742 17.39-10.989 14.871 17.527 6.199 13.37 37.063 30.813 2.528 1.299 4.119 3.909 6.8 4.962 46.369 18.632 49.636 17.69 62.621 25.056 10.146 5.723 20.363 11.375 31.422 15.144 1.779-1.03 3.522-2.037 5.208-3.09 13.706 2.169 39.477 13.506 52.066 8.52 7.178-2.35 0.543-5.14 34.23-9.959 3.78 1.603 7.502 3.569 11.703 3.721 9.036 0.237 35.539-1.242 47.899-14.113 8.263-8.29 27.218-54.257 27.677-55.436 10.747-23.029-0.038-44.973-20.784-57.086-20.44-10.2-20.015-15.743-21.557-18.081-5.325-9.584-9.982-20.012-10.638-31.083 6.523-13.569 17.875-15.1 25.196-25.898-0.543-9.452 12.831-12.174 3.534-30.217-11.184-21.166-12.517-18.635-32.031-25.43-32.229-11.833-44.017-1.705-72.862 7.7-6.483-1.779-11.328-7.291-12.768-13.786-7.933-10.721-26.124-19.762-35.483-20.234-1.978-5.407-2.914-11.118-4.166-16.712-2.188-8.484-6.799-16.325-7.607-25.149 0.094-10.182-1.007-20.304-2.036-30.404 15.798 7.957 75.19 26.238 75.19 26.238 7.753 8.622 23.123 40.453 44.552 18.022 0.597 1.662 1.791 3.686 3.85 3.593 7.443 0.562 15.787 1.732 22.13-3.101 7.49 1.369 15.05-0.269 22.247-2.247 2.154-1.826 4.939-2.551 7.314-3.944 3.172-1.872 6.039-4.178 9.234-5.957 0.421 0.538 1.252 1.603 1.674 2.13 8.461 0.125 27.351-10.926 34.219-16.407 16.362-12.989 0.208-24.316 1.592-33.482 1.396-14.85-2.407-27.88 6.085-37.554 9.087-1.011 36.021 10.261 49.07 5.477 36.927 4.1 51.1 13.297 78.841 25.676 5.407 2.738 11.844 1.943 17.238 4.763 45.32 20.929 34.048 19.701 45.278 26.191 30.566 18.408 26.921 8.027 40.878 3.043 20.458-5.281 32.451-14.869 31.165-42.821-2.054-19.002-7.245-53.267-22.177-64.985-4.717-7.946-7.853-16.805-12.92-24.599-21.593-36.214-77.987-79.63-103.54-89.912-34.797-14.995-73.355-13.736-110.06-5.629-3.289 0.515-6.729 3.195-9.936 1.931-5.998-17.491-28.286-89.187-28.286-89.187 7.498-7.225 11.269-53.647 3.183-82.434 13.127 18.476 14.558 46.348 26.799 53.353 2.996-1.358 4.962-4.26 4.084-7.595-2.341-7.572-1.37-15.565-1.463-23.347-0.156-15.806 6.443-15.301-5.348-50.287-11.811-32.263-28.585-52.685-55.366-73.95 4.47-4.576 9.667-8.555 13.084-14.043 2.984-4.985 8.695-7.186 13.037-10.743 34.819-23.716 123.55-99.874 143.15-132.09 46.377-74.313-37.57-125.78-386.14 37.706-2.551-0.609-3.534-3.558-5.453-5.114-21.748-21.289-19.135-24.341-55.74-37.636-9.304-2.873-24.526 4.046-32.452 7.607-0.059-1.791 1.182-4.049-0.445-5.407-55.296-58.807-125.4-123.42-216.16-183.41-27.936-18.17-37.126-24.685-68.672-28.485-10.939-1.289-48.759 3.235-66.273 0.316-41.242-4.234-87.387-41.753-123.5-49.748-100.56-28.692-214.19 87.012-306.65 142.82-128.37 80.264-316.56 120.78-443.54 106.37-9.421 0.339-18.677-1.627-28.063-2.06-107.06-7.906-165.38-32.75-190.67-25.407-29.321 8.122 13.324 66.426 68.976 97.531 93.484 52.745 211.21 89.577 319.25 108.22 28.638 7.334 107.59 9.878 126.68 10.65 194.59 4.702 297.64-40.388 301.21-47.455l1.404 0.468c1.296 25.446 31.979 26.712 101.28 65.875 28.491 14.804 45.192 20.6 65.22 37.777 13.051 10.734 5.366 33.906 26.401 45.325 6.612 4.412 14.769 2.294 22.142 3.101 2.913 29.992 25.156 51.513 47.466 54.991-89.146 78.059-263.22 281.84-148.41 302.49 8.473 1.545 17.226 2.703 25.734 0.726 0.316 0.363 0.936 1.112 1.252 1.486-7.314 1.077-13.938 4.693-21.205 6.05-90.605 32.067-162.41-62.327-305.89 29.21-70.573 45.985-94.954 114.66-82.832 148.13 3.231 1.527 3.206-1.992 3.716-4.451 5.362 0.754 16.421-22.616 34.599-37.141 24.177-20.074 62.658-39.568 107.86-48.695-30.597 19.238-53.361 51.496-70.497 74.032-4.763 6.647-7.431 14.546-11.434 21.568-17.804 10.488-43.593 24.862-72.627 21.615-21.671-1.028-39.811-14.329-46.121-6.039-4.874 10.592 9.955 27.442 26.565 35.19 18.651 7.858 16.479 4.7 25.418 5.957-4.581 0.52-53.425 21.895-102.93 6.998-3.71-1.112-7.537-4.95-11.539-2.762-1.486 1.474-1.791 4.447 0.105 5.851 16.839 12.167 40.857 46.785 98.256 43.944 47.002-1.129 102.98-33.782 206.33-76.736-2.257 3.91-4.515 7.821-6.772 11.731-39.853 10.142-51.673 18.423-62.52 24.174-35.268 20.273-73.442 53.758-97.285 91.691-26.371 41.644-42.854 96.095-42.891 98.397 1.837 1.837 4.108 2.891 6.729 2.422 4.269-3.866 3.435-8.626 11.948-28.999 46.161-83.916 182.98-125.07 184.54-126.22-33.589 28.885-73.184 113.65-76.84 138.83-0.597 1.943-1.556 3.815-2.528 5.664 1.381 2.458 0.854 5.126-0.386 7.572 2.504-1.709 5.489-1.907 8.379-1.673 7.133-8.063 34.585-54.718 121.73-118.19 12.381-8.402 24.552-17.484 38.397-23.335-8.86 10.479-19.562 35.431-21.088 45.571-0.597 4.201 5.453 6.226 8.016 3.078 6.132-5.898 11.047-13.037 17.578-18.549 27.382-23.981 72.506-34.821 78.877-37.355 0.726-1.311 2.54-2.926 3.546-0.866-10.805 7.965-66.066 60.769-53.634 110.12 0.927-0.211 1.472-0.775 1.863-1.481 0.342 0.496 0.718 0.968 1.122 1.416-0.013 0.302-0.012 0.61 0.023 0.931 2.341 1.861 4.786 4.389 8.087 3.721 11.314-15.853 20.236-38.408 71.984-84.833 0.351-1.194 0.667-2.27 0.983-3.405l-0.129 2.984 2.715-0.819c-6.797 2.748-17.352 26.364-29.023 40.843-42.848 55.984-81.996 126.76-172.55 208.57-101.84 93.037-227 140.44-243.42 144.89-54.739 5.474-48.944 0.151-84.915-8.403-37.918-11.419-40.283-11.441-72.627-26.788-172.79-75.815-275.72-138.05-283.62-234.56-0.503-5.535-1.135-11.785-6.015-15.319-3.71-0.737-7.841-0.585-11.083 1.685-31.265 18.804-77.126 55.006-94.547 91.492-5.746 12.499-5.781 26.565-4.318 40-93.208-32.995-142.49-48.163-201.96-25.009-48.25 15.816-49.92 33.27-54.968 35.975-2.27-2.505-5.582-3.499-8.426-5.185-92.11-50.524-152.33-61.291-217.93-61.685-128.68-3.943-324.14 114.64-349.2 242.04-5.208 5.278-11.902 10.252-13.727 17.823 1.639 1.627 3.23 3.277 4.95 4.775 1.405-0.058 2.762-0.082 4.073-0.07 1.241-2.071 2.879-3.815 4.927-4.974 0 3.253-0.094 6.519 0.023 9.818 2.153-0.843 2.223-3.23 2.855-5.021 12.868-39.202 103.7-67.695 151.72-73.505 318.99-20.313 476.54 310.91 774.86 498.94 111.4 70.752 244.77 125.03 375.58 113.9 24.707-1.63 84.978-7.178 103.6-23.616 3.23-3.171 6.085-6.764 8.25-10.708 7.257-43.882 2.738-59.423 4.248-90.697 0.316-5.383 1.311-10.696 1.276-16.068 4.599 1.533 6.647-3.136 8.906-6.062 4.4-6.495 11.879-9.62 18.713-12.803-6.975 8.695-12.967 18.303-16.84 28.824-13.877 41.274-5.492 68.274-3.792 82.469 12.141 74.201 26.047 98.816 35.658 115.32-7.87 0.086-346.01 74.388-385.16 91.059-0.691 0.035-2.048 0.105-2.727 0.14 6.204-32.22-28.38-86.863-104.52-106-3.745-1.03-6.401-4.026-9.456-6.226-49.67-37.275-93.921-53.508-94.781-48.087 4.283 0.679 7.583 3.675 11.211 5.781 10.357 7.232 22.001 12.253 32.873 18.607 13.601 7.692 41.496 25.71 41.498 25.711-0.433 3.008-3.967 0.62-5.933 0.995-20.246-0.773-40.878 2.001-59.649 9.865-3.932 1.334-7.923-0.691-11.738-1.604-5.344-1.977-28.587-6.493-37.472-6.459-27.06-2.812-21.846-0.693-43.171 2.048l1.03 1.545c11.645-0.626 69.51 4.662 80.831 9.912-29.598 19.215-47.139 61.939-48.168 70.954 0.211 1.299-0.316 2.083-1.568 2.329-2.862-6.46-16.223-7.734-25.102 4.88-0.105 0.807-0.316 2.411-0.421 3.207-1.357-1.791-2.738-3.616-3.323-5.816-2.106-0.267-39.569 4.972-50.123 8.11-4.866-9.074-11.036-20.131-19.427-13.365-3.417 2.645-3.078 7.443-4.505 11.188-108.65-75.232-251.53-114.61-252.7-115.06-0.609 2.914 3.289 3.125 5.126 4.096 97.369 39.93 145.49 48.445 247.62 114.88-0.199 3.99-0.761 8.016-0.386 12.053-4.014-0.901-3.745-6.553-7.455-8.168-26.984-15.404-266.36-98.228-452.98-136.28-1.905-0.448-46.202-10.016-48.134-9.268-0.831-0.995-1.931-1.498-3.289-1.498 1.921 4.754 152.47 41.171 312.71 90.532 20.386 5.84 40.363 13.049 60.796 18.643 2.277 1.645 5.285 1.258 7.56 2.798-371.94-70.72-227.99-25.645-467.63-98.07-237.75-71.854-39.064 1.026 123.06 41.849 3.183 0.421 6.249 1.217 9.21 2.375 1.533-0.351 3.031-0.644 4.482-0.866l-2.001 1.088 1.931 1.217c-2.727-0.585-5.84-0.035-8.274-1.732-78.023-9.358-175.06-13.574-182.21-13.458-17.756-0.293-25.758-1.706-39.485 22.306-3.581 7.232-7.291 14.488-9.807 22.2 0.217 0.554 0.432 1.117 0.653 1.677l-0.023 7.907c-30.89 1.988-53.843 5.345-63.638 10.52 0 0.293-2e-3 0.7-4e-3 1.135-0.542 1-0.447 1.234-0.984 5.71-0.931 0.564-1.66 1.313-2.032 2.06 0.534 0.792 1.033 1.615 1.513 2.458-0.025 0.364-0.011 0.722 0.035 1.075-1.161 0.766-2.214 1.74-3.28 2.775 0.726 5.407-1.205 10.603-1.545 15.963-53.006 3.09-44.04 7.081-82.622 3.23-19.236-2.073-20.567-3.628-25.676 2.095-29.415 51.491-38.705 51.383-33.54 98.923 1.428 6.273 2.54 13.341 7.537 17.917 2.329 2.622 6.355 3.488 9.479 1.896 9.924-4.108 20.784-2.118 31.118-1.744 0.105 0.374 0.328 1.135 0.433 1.521-5.514 0.575-22.3 8.933-25.009 21.323-3.369 12.431 7.443 44.743 11.703 56.793 1.673 2.645-1.814 4.822-0.784 7.642 1.229-0.456 3.172-2.06 3.698 0.047 1.954 6.179 5.699 12.288 4.248 19.029-1.17 5.313-2.762 10.615-2.855 16.138-0.035 5.922 2.973 11.738 1.299 17.683-5.148 17.468 9.903 13.814 13.575 14.313 28.474 2.916 77.437-10.104 78.608-10.462 23.834-6.432 16.595-2.319 82.399-10.263 8.928-1.744 100.64-14.219 122.17-21.517-0.776 1.115-1.604 2.191-2.519 3.2-0.418 2e-3 -0.806 3e-3 -1.099 3e-3 -0.351 0.457-1.053 1.369-1.404 1.826-127.39 38.85-287.96 66.95-293.61 79.345 0 0 227.53-51.466 295.39-74.184 0.96 1.287 1.931 2.621 2.352 4.248-19.906 13.716-41.615 24.833-64.506 32.674-165.92 59.292-246.58 53.247-230.12 88.953 4.038 10.369 5.337 22.095 12.487 31.024 14.901 20.544 9.901 7.75 17.039 30.31 1.685 3.171 4.716 6.671 8.683 6.179 5.547 0.609 9.456-3.85 13.809-6.401 15.626-11.412 41.682-14.92 55.377-22.235 0.632-0.023 1.896-0.082 2.516-0.105-10.997 6.023-27.955 23.719-46.343 37.542-10.743 7.186-22.937 12.464-32.288 21.592-3.195 2.809 0.889 8.227 4.505 6.963 5.98-1.966 12.148-3.347 17.847-6.027 1.276-0.807 3.312-3.042 3.991-0.491-5.746 2.025-9.783 7.443-10.86 13.365-0.679 7.174 3.745 13.47 7.068 19.462 1.475 1.685-0.398 3.499-0.878 5.254-4.701 9.323 5.651 25.125 13.482 31.27 2.668 2.399 6.238 4.33 7.279 8.028 14.87 46.345 9.356 56.672 29.889 71.598 7.37 5.2 14.737 15.137 27.045 14.745 13.733-8.275 53.901-17.318 82.153-33.728 0.702-0.046 2.107-0.14 2.797-0.187-2.739 3.464-7.736 3.522-11.012 6.483-16.878 9.022-38.804 36.05-56.536 49.257-42.441 28.214-63.251 7.344-93.095 26.998-1.018 0.737-2.914 1.229-2.575 3.019 11.656 1.404 22.458-4.119 33.786-5.477 8.04-0.152 16.173 0.164 24.038-1.685 3.402-1.278 30.696-6.797 53.762-32.92 32.91-38.786 141.47-90.236 156.21-94.348 0.597-0.363 1.802-1.088 2.411-1.463 12.437 6.396 27.021 9.877 30.333 9.877 18.061 1.194 57.444-17.316 72.756-26.097 4.822 3.265 10.919 2.633 16.15 4.81 21.521 8.262 31.138 4.104 46.917-5.77 39.017-26.565 70.685-63.008 112.31-85.886 1.393-1.72 2.399-3.768 2.902-5.77 1.176-0.648 57.355-32.292 59.883-34.043l2.06-0.597c0.316-0.96 0.573-1.873 0.773-2.739l0.632 2.633c-0.281 0-0.854 0.012-1.135 0.023-56.999 46.24-52.368 49.916-160.28 135.39-3.136 2.586-6.659 4.669-9.268 7.923 40.462-17.791 127.55-108.16 193.89-154.55 14.735-10.502 63.019-29.982 94.301-44.833 61.136-28.759 67.957-37.631 71.059-39.392 0.494 3.285-151.66 132.23-216.98 171.88l-1.568 1.673c3.606-0.819 41.841-17.948 77.73-44.81 100.24-74.492 113.17-100.11 182.64-149.85 3.897-3.242 9.268-4.728 12.054-9.128 0.667-0.948 1.51-1.592 2.528-1.931 5.124 8.714 19.363 10.627 21.451-9.082 21.129-4.347 32.477-15.003 58.713-30.31 2.891 2.563 6.858 3.02 10.451 3.862 21.854 5.293 25.425-7.349 29.269-9.596 7.337 5.828 16.63 8.11 25.161 11.434-5.369 3.956-20.69 23.763-22.82 27.127 9.643-6.951 18.291-15.319 26.331-24.084 0.983-0.901 2.036-2.715 3.604-2.001 16.063 2.601 43.701 7.225 71.434-4.974 0.702-0.632 1.381-1.17 2.025-1.638 0.012 1.521-1.065 3.323-2.973 2.75-9.643 8.593-35.375 34.68-80.702 63.78-2.656 1.709-5.5 3.078-7.338 5.922 22.067-5.619 63.308-40.209 80.702-56.56 28.12-26.412 21.099-17.928 31.691-24.014 39.452-18.75 78.752-44.846 67.853-87.115-0.854-2.656-0.772-7.092-4.868-5.933-0.129-1.182-1.989-3.967 0.199-3.803 30.544-2.797 58.455-16.477 87.572-24.962-2.317 3.604-4.822 7.302-8.461 9.771-10.833-2.423-36.577 3.036-45.734 23.289-12.759 28.378-10.006 72.603-9.936 79.122 6.107 70.08 4.416 66.058 33.903 76.794 1.673 0.667 4.646 0.597 4.634 3.066-5.091 1.217-9.362 4.365-14.008 6.647-15.009 8.486-9.085 17.054-8.005 31.515 3.205 19.107 9.044 56.464 23.371 72.674 8.218 11.25 14.159 11.196 17.156 29 1.545 13.248 5.313 26.097 9.667 38.678 4.424 14.289 6.671 29.175 11.89 43.242 16.994 51.541 88.772 148.82 179.99 193.44 70.485 35.366 109.83 52.569 137.62 56.56 11.838 2.83 61.339 6.823 88.297 1.849 70.234-14.633 92.162-67.362 68.286-118.24-36.24-73.969-108.99-75.435-92.171-48.918 3.71 6.402 7.923 13.06 7.794 20.761-2.224 10.065-12.417 17.074-22.458 17.262-27.399 0.611-38.634-13.893-51.949-37.718-33.327-61.294-46.55-103.33-46.904-186.68 0.304-9.163-2.891-18.057-1.721-27.209 7.548-3.932 16.22-11.41 13.997-20.878 36.48-3.994 37.534-25.438 58.818-38.127 26.563-18.918 63.128-8.372 95.577-21.545 9.349-1.366 17.837 20.873 28.754 29.877 19.811 16.119 47.193-6.02 47.544-13.417 0.307-0.323 2.893-3.142 3.917-4.175 27.389 34.106 61.245 24.456 60.312-14.567 0-57.209-8.383-73.852-13.259-108.76-0.866-0.035-2.61-0.094-3.487-0.129-0.059-2.188 2.223-2.188 3.64-2.656 8.66-2.563 17.414-4.763 26.214-6.647-6.136 23.354 4.113 60.936 4.365 62.107 4.529 13.829 5.18 39.122 26.928 40.07 7.665 0.667 15.787-1.007 23.008 2.305-29.981 25.069-19.974 48.037-7.326 82.118 23.246 63.012 45.221 234.08 199.53 283.68 42.489 12.597 55.764 9.431 99.614 3.628 194.57-37.615 189.19-171.31 141.42-212.86-6.39-6.12-15.729-5.676-23.429-9.058 0.433 4.529-0.796 9.444 1.381 13.716 33.379 70.439-50.444 70.779-73.294 56.969-30.242-17.127-53.949-67.335-66.635-99.614-1.603-4.47-4.892-8.028-6.53-12.452 1.184-1.887 9.544-6.785 1.931-33.797-3.805-18.412-14.956-43.712-33.049-41.381-0.304 0.492-0.901 1.486-1.194 1.978-7.249-5.458-4.94-21.605-9.573-29.678 11.48 2.61 23.92-1.615 31.89-10.146 10.618-11.773 20.631-9.961 29.795-15.354 19.993-9.373 44.443-36.904 57.121-46.226 29.558-22.213 66.81-9.626 99.813-14.593 34.668-1.908 54.865-20.005 81.779-20.187 9.038 15.795 36.277 31.532 50.849 7.326 8.116-13.682 14.072-44.464 6.986-72.627 8.56-5.222 47.421-23.438 48.356-23.71 24.423 17.96 69.67-10.883 58.151-39.883 3.721 2.376 7.244 5.114 11.317 6.893 17.156 6.627 53.272 0.277 39.93-54.664 11.62 14.434 32.292 17.284 44.471 11.515 14.404-7.155 17.431-32.034 12.92-46.718 73.821 45.521 72.657-23.594 42.2-47.373-0.792 0.554-1.614 1.135-2.438 1.716 10.977-25.177 17.511-72.486 6.208-103.19 0.197-1.021 0.162-2.06-0.082-3.044 0.469-0.526 0.735-1.226 0.772-2.016 23.523 30.464 29.341 35.735 42.163 41.552 22.391 10.575 23.141 3.197 31 2.551 9.433 21.428 43.518 39.448 86.917-5.324 2.505-2.306 3.137-5.758 2.926-8.965-1.135-1.135-0.772-2.926-1.053-4.248 3.334 7.497 10.882 31.648 29.374 21.346 21.924-12.128 55.708-19.059 63.09-53.54 10.571 8.307 13.455 12.147 27.759 10.544 12.638-3.864 40.94-38.094 38.139-66.952 11.57-0.801 69.081-9.933 70.252-10.123 2.668 12.721 11.176 23.031 18.303 33.575 5.535 7.736 9.877 16.279 15.682 23.85 17.568 23.261 30.852-0.963 42.387-8.449 6.816 7.23 33.113 24.323 38.292 17.812 3.101-6.156 14.851-8.115 18.748-30.521 0.714-2.013 0.105-4.564 1.954-5.922 2.374 3.527 13.384 12.975 35.799 10.884 17.792-0.3 43.741-17.483 41.463-34.921 2.469 4.178 4.108 8.917 7.536 12.499 8.262 9.21 20.117 16.559 32.943 15.483 10.018-0.585 17.812-7.806 25.103-13.938 37.943-33.032 6.898-78.658-6.472-87.782 51.104 9.027 213.28-49.378 256.42-50.205 50.55-1.182 72.488-12.798 126.32-32.896 44.45-11.639 70.235-10.178 76.314-53.154 9.682-38.788-0.246-36.691-2.13-45.313-0.948-3.85-5.734-4.529-9.081-4.564-0.351-0.211-1.03-0.632-1.369-0.843 1.464-0.252 26.468-17.079 27.478-18.139 7.407-11.629 13.049-37.239 7.637-55.978z"/> </svg>