<svg xmlns="http://www.w3.org/2000/svg" viewBox="0 0 64 64">
  <defs>
    <linearGradient id="g" x1="0" x2="1" y1="0" y2="1">
      <stop offset="0" stop-color="#ff7b00"/>
      <stop offset="1" stop-color="#ff5a00"/>
    </linearGradient>
  </defs>
  <!-- Pumpkin body -->
  <path d="M18 26c-6 0-10 6-10 14s4 14 10 14c2 0 4-1 6-2 2 1 4 2 8 2s6-1 8-2c2 1 4 2 6 2 6 0 10-6 10-14s-4-14-10-14c-2 0-4 1-6 2-2-1-4-2-8-2s-6 1-8 2c-2-1-4-2-6-2z" fill="url(#g)"/>
  <!-- Stem -->
  <rect x="30" y="16" width="4" height="6" fill="#5c8a3a"/>
  <path d="M30 16c2-4 6-4 8 0-2-2-6-2-8 0z" fill="#3a5a22"/>
  <!-- Eyes & mouth -->
  <path d="M24 40h8l-4-6-4 6zM36 44h8l-4-8-4 8z" fill="#2b003f"/>
</svg>
